<!--?xml version="1.0" encoding="utf-8"?-->
<!-- Generator: Adobe Illustrator 18.1.1, SVG Export Plug-In . SVG Version: 6.00 Build 0)  -->

<svg version="1.1" id="_x31_0" xmlns="http://www.w3.org/2000/svg" xmlns:xlink="http://www.w3.org/1999/xlink" x="0px" y="0px" viewBox="0 0 512 512" style="width: 256px; height: 256px; opacity: 1;" xml:space="preserve">
<style type="text/css">
	.st0{fill:#374149;}
</style>
<g>
	<path class="st0" d="M490.293,252.254c-10.644,0.68-18.965,9.91-19.039,20.578c-0.082,11.375-5.734,22.469-16,31.965
		c-1.836,1.664-3.77,3.293-5.898,4.84c-2.699-20.89-12-40.238-26.934-55.535c-7.609-7.793-20.183-9.039-28.457-1.957
		c-9.133,7.82-9.531,21.582-1.195,29.918c10.758,10.762,16.687,25.07,16.687,40.286c0,1.554-0.106,3.09-0.226,4.621
		c-8.266,1.684-16.934,2.586-25.844,2.586c-24.703,0-47.679-6.695-64.699-18.855c-0.062-0.046-0.121-0.09-0.183-0.133
		c-9.508-6.836-10.39-20.73-2.164-29.058c17.523-17.738,36.949-31.746,41.938-67.289c8.75-62.329-36.618-120.462-99.535-122.09
		c-58.41-1.508-106.238,45.394-106.238,103.465c0,49.774,22.813,65.332,43.094,85.848c8.258,8.355,7.438,22.266-2.098,29.125
		c-0.062,0.043-0.125,0.086-0.187,0.133c-17.016,12.16-39.993,18.855-64.696,18.855c-8.164,0-16.109-0.801-23.746-2.218
		c-0.141-1.652-0.242-3.313-0.242-4.988c0-14.883,5.668-28.898,15.988-39.57c7.672-7.942,8.84-20.535,1.446-28.738
		c-7.871-8.738-21.347-9-29.558-0.789c-13.375,13.374-22.321,29.969-26.27,48.011c-0.734,3.219-1.363,6.477-1.785,9.805
		c-15.266-10.726-23.692-24.406-23.703-38.453c-0.008-10.586-8.477-19.688-19.035-20.36C9.855,251.496,0,260.89,0,272.582
		c0,27.422,14.289,52.73,40.234,71.27c9.375,6.699,19.922,12.195,31.266,16.426c7.18,17.046,19.246,32.054,35.543,43.218
		c11.129,7.629,23.863,12.793,37.16,15.074c5.746,0.988,11.442,1.305,17.09,1.32c0.102,0.004,0.203,0.016,0.305,0.016
		c0.125,0,0.242-0.02,0.363-0.02c16.074-0.062,31.492-3.961,45.305-11.293c0.156-0.082,0.313-0.164,0.469-0.246
		c2.718-1.465,5.367-3.047,7.949-4.774c0.012-0.008,0.024-0.016,0.035-0.023c5.298-3.547,10.367-7.497,14.977-12.106
		c10.957-10.958,18.961-24.062,23.684-38.36h5.328c6.664,20.18,19.875,37.997,38.687,50.727
		c11.062,7.484,23.688,12.546,36.859,14.785c5.699,0.969,11.348,1.282,16.954,1.297c0.094,0,0.187,0.012,0.277,0.012h0.004
		c0.118,0,0.23-0.02,0.348-0.02c16.074-0.058,31.496-3.957,45.309-11.289c0.164-0.086,0.324-0.172,0.484-0.258
		c2.719-1.461,5.363-3.043,7.942-4.766c0.012-0.008,0.019-0.012,0.027-0.016c5.301-3.55,10.371-7.504,14.985-12.117
		c9.335-9.336,16.542-20.238,21.394-32.106c10.406-4.094,20.102-9.274,28.793-15.484c25.942-18.539,40.23-43.848,40.23-71.27
		C512,260.89,502.149,251.496,490.293,252.254z M382.984,370.418c-9.038,5.762-19.519,8.898-30.5,8.898
		c-15.218,0-29.523-5.926-40.285-16.684c-4.258-4.258-7.722-9.086-10.398-14.289c19.234,11.926,42.543,19.246,67.34,21.301
		C373.726,370.063,378.336,370.359,382.984,370.418z M288.543,168.77c7.812,0,14.148,6.336,14.148,14.149
		c0,7.816-6.336,14.148-14.148,14.148c-7.813,0-14.149-6.332-14.149-14.148C274.394,175.106,280.73,168.77,288.543,168.77z
		 M278.332,222.625c-2.32,10.203-11.446,17.794-22.332,17.794c-10.898,0-20.031-7.606-22.34-17.829h36.734L278.332,222.625z
		 M223.461,168.77c7.813,0,14.149,6.336,14.149,14.149c0,7.816-6.336,14.148-14.149,14.148c-7.816,0-14.148-6.332-14.148-14.148
		C209.313,175.106,215.645,168.77,223.461,168.77z M131.074,370.25c30.48-0.43,59.359-8.798,82.102-23.79
		c-2.774,5.922-6.527,11.406-11.293,16.172c-10.758,10.758-25.066,16.684-40.286,16.684c-8.762,0-17.176-2.055-24.828-5.786
		C134.824,372.543,132.906,371.488,131.074,370.25z" style="fill: rgb(75, 75, 75);"></path>
</g>
</svg>
